{
	"asset":{
		"generator":"Khronos glTF Blender I/O v3.6.28",
		"version":"2.0"
	},
	"scene":0,
	"scenes":[
		{
			"extras":{
				"principled_baker_settings":{
					"bake_mode":1
				},
				"principled_baker_suffixlist":[
					{
						"name":"Color",
						"suffix":"_color"
					},
					{
						"name":"Metallic",
						"suffix":"_metallic"
					},
					{
						"name":"Roughness",
						"suffix":"_roughness"
					},
					{
						"name":"Normal",
						"suffix":"_normal"
					},
					{
						"name":"Displacement",
						"suffix":"_disp"
					},
					{
						"name":"Alpha",
						"suffix":"_alpha"
					},
					{
						"name":"Emission",
						"suffix":"_emission"
					},
					{
						"name":"Ambient Occlusion",
						"suffix":"_ao"
					},
					{
						"name":"Diffuse",
						"suffix":"_diffuse"
					},
					{
						"name":"Glossiness",
						"suffix":"_glossiness"
					},
					{
						"name":"Bump",
						"suffix":"_bump"
					},
					{
						"name":"Vertex Color",
						"suffix":"_vertex"
					},
					{
						"name":"Material ID",
						"suffix":"_MatID"
					},
					{
						"name":"Wireframe",
						"suffix":"_wireframe"
					},
					{
						"name":"Subsurface",
						"suffix":"_subsurface"
					},
					{
						"name":"Subsurface Radius",
						"suffix":"_subsurface_radius"
					},
					{
						"name":"Subsurface Color",
						"suffix":"_subsurface_color"
					},
					{
						"name":"Specular",
						"suffix":"_specular"
					},
					{
						"name":"Specular Tint",
						"suffix":"_specular_tint"
					},
					{
						"name":"Anisotropic",
						"suffix":"_anisotropic"
					},
					{
						"name":"Anisotropic Rotation",
						"suffix":"_anisotropic_rotation"
					},
					{
						"name":"Sheen",
						"suffix":"_sheen"
					},
					{
						"name":"Sheen Tint",
						"suffix":"_sheen_tint"
					},
					{
						"name":"Clearcoat",
						"suffix":"_clearcoat"
					},
					{
						"name":"Clearcoat Roughness",
						"suffix":"_clearcoat_roughness"
					},
					{
						"name":"IOR",
						"suffix":"_ior"
					},
					{
						"name":"Transmission",
						"suffix":"_transmission"
					},
					{
						"name":"Transmission Roughness",
						"suffix":"_transmission_roughness"
					},
					{
						"name":"Clearcoat Normal",
						"suffix":"_clearcoat_normal"
					},
					{
						"name":"Tangent",
						"suffix":"_tangent"
					}
				]
			},
			"name":"Scene",
			"nodes":[
				0,
				1,
				2,
				3,
				4,
				5,
				6,
				7,
				8,
				10,
				12,
				14,
				16,
				18,
				20,
				22,
				24,
				26,
				28,
				30,
				32,
				34,
				37,
				40,
				43,
				46,
				49,
				52,
				55,
				58,
				61,
				64,
				67,
				70
			]
		}
	],
	"nodes":[
		{
			"mesh":0,
			"name":"pokey_hole"
		},
		{
			"mesh":1,
			"name":"pokey_hole_edge"
		},
		{
			"mesh":2,
			"name":"home_row"
		},
		{
			"mesh":3,
			"name":"center"
		},
		{
			"mesh":4,
			"name":"5_run"
		},
		{
			"mesh":5,
			"name":"home_entrance"
		},
		{
			"mesh":6,
			"name":"home_entrance_edge"
		},
		{
			"mesh":7,
			"name":"home"
		},
		{
			"mesh":8,
			"name":"home_edge"
		},
		{
			"mesh":3,
			"name":"center"
		},
		{
			"children":[
				9
			],
			"name":"board_center"
		},
		{
			"mesh":2,
			"name":"home_row"
		},
		{
			"children":[
				11
			],
			"name":"board_home_row",
			"translation":[
				4,
				0,
				0
			]
		},
		{
			"mesh":2,
			"name":"home_row"
		},
		{
			"children":[
				13
			],
			"name":"board_home_row.001",
			"rotation":[
				0,
				1,
				0,
				1.6292068494294654e-07
			],
			"translation":[
				-4,
				0,
				0
			]
		},
		{
			"mesh":2,
			"name":"home_row"
		},
		{
			"children":[
				15
			],
			"name":"board_home_row.002",
			"rotation":[
				0,
				-0.7071068286895752,
				0,
				0.7071068286895752
			],
			"translation":[
				0,
				0,
				4
			]
		},
		{
			"mesh":2,
			"name":"home_row"
		},
		{
			"children":[
				17
			],
			"name":"board_home_row.003",
			"rotation":[
				0,
				0.7071068286895752,
				0,
				0.7071068286895752
			],
			"translation":[
				0,
				0,
				-4
			]
		},
		{
			"mesh":4,
			"name":"5_run"
		},
		{
			"children":[
				19
			],
			"name":"board_5_run",
			"translation":[
				4,
				0,
				1.5
			]
		},
		{
			"mesh":4,
			"name":"5_run"
		},
		{
			"children":[
				21
			],
			"name":"board_5_run.001",
			"translation":[
				5,
				0,
				-1.5
			]
		},
		{
			"mesh":4,
			"name":"5_run"
		},
		{
			"children":[
				23
			],
			"name":"board_5_run.002",
			"translation":[
				-5,
				0,
				1.5
			]
		},
		{
			"mesh":4,
			"name":"5_run"
		},
		{
			"children":[
				25
			],
			"name":"board_5_run.003",
			"translation":[
				-4,
				0,
				-1.5
			]
		},
		{
			"mesh":4,
			"name":"5_run"
		},
		{
			"children":[
				27
			],
			"name":"board_5_run.004",
			"rotation":[
				0,
				0.7071068286895752,
				0,
				0.7071068286895752
			],
			"translation":[
				-1.5,
				0,
				-5
			]
		},
		{
			"mesh":4,
			"name":"5_run"
		},
		{
			"children":[
				29
			],
			"name":"board_5_run.005",
			"rotation":[
				0,
				0.7071068286895752,
				0,
				0.7071068286895752
			],
			"translation":[
				1.5,
				0,
				-4
			]
		},
		{
			"mesh":4,
			"name":"5_run"
		},
		{
			"children":[
				31
			],
			"name":"board_5_run.006",
			"rotation":[
				0,
				0.7071068286895752,
				0,
				0.7071068286895752
			],
			"translation":[
				1.5,
				0,
				5
			]
		},
		{
			"mesh":4,
			"name":"5_run"
		},
		{
			"children":[
				33
			],
			"name":"board_5_run.007",
			"rotation":[
				0,
				0.7071068286895752,
				0,
				0.7071068286895752
			],
			"translation":[
				-1.5,
				0,
				4
			]
		},
		{
			"mesh":0,
			"name":"pokey_hole"
		},
		{
			"mesh":1,
			"name":"pokey_hole_edge"
		},
		{
			"children":[
				35,
				36
			],
			"name":"board_pokey_hole",
			"translation":[
				7.5,
				0,
				1.5
			]
		},
		{
			"mesh":0,
			"name":"pokey_hole"
		},
		{
			"mesh":1,
			"name":"pokey_hole_edge"
		},
		{
			"children":[
				38,
				39
			],
			"name":"board_pokey_hole.001",
			"rotation":[
				0,
				-0.7071068286895752,
				0,
				0.7071068286895752
			],
			"translation":[
				-1.5,
				0,
				7.5
			]
		},
		{
			"mesh":0,
			"name":"pokey_hole"
		},
		{
			"mesh":1,
			"name":"pokey_hole_edge"
		},
		{
			"children":[
				41,
				42
			],
			"name":"board_pokey_hole.002",
			"rotation":[
				0,
				1,
				0,
				1.6292068494294654e-07
			],
			"translation":[
				-7.5,
				0,
				-1.5
			]
		},
		{
			"mesh":0,
			"name":"pokey_hole"
		},
		{
			"mesh":1,
			"name":"pokey_hole_edge"
		},
		{
			"children":[
				44,
				45
			],
			"name":"board_pokey_hole.003",
			"rotation":[
				0,
				0.7071065902709961,
				0,
				0.7071069478988647
			],
			"translation":[
				1.5,
				0,
				-7.5
			]
		},
		{
			"mesh":5,
			"name":"home_entrance"
		},
		{
			"mesh":6,
			"name":"home_entrance_edge"
		},
		{
			"children":[
				47,
				48
			],
			"name":"board_home_entrance",
			"translation":[
				7.5,
				0,
				0
			]
		},
		{
			"mesh":5,
			"name":"home_entrance"
		},
		{
			"mesh":6,
			"name":"home_entrance_edge"
		},
		{
			"children":[
				50,
				51
			],
			"name":"board_home_entrance.001",
			"rotation":[
				0,
				-0.7071068286895752,
				0,
				0.7071068286895752
			],
			"translation":[
				0,
				0,
				7.5
			]
		},
		{
			"mesh":5,
			"name":"home_entrance"
		},
		{
			"mesh":6,
			"name":"home_entrance_edge"
		},
		{
			"children":[
				53,
				54
			],
			"name":"board_home_entrance.002",
			"rotation":[
				0,
				1,
				0,
				1.6292068494294654e-07
			],
			"translation":[
				-7.5,
				0,
				0
			]
		},
		{
			"mesh":5,
			"name":"home_entrance"
		},
		{
			"mesh":6,
			"name":"home_entrance_edge"
		},
		{
			"children":[
				56,
				57
			],
			"name":"board_home_entrance.003",
			"rotation":[
				0,
				0.7071065902709961,
				0,
				0.7071069478988647
			],
			"translation":[
				0,
				0,
				-7.5
			]
		},
		{
			"mesh":7,
			"name":"home"
		},
		{
			"mesh":8,
			"name":"home_edge"
		},
		{
			"children":[
				59,
				60
			],
			"name":"board_home",
			"translation":[
				-5,
				0,
				5
			]
		},
		{
			"mesh":7,
			"name":"home"
		},
		{
			"mesh":8,
			"name":"home_edge"
		},
		{
			"children":[
				62,
				63
			],
			"name":"board_home.001",
			"rotation":[
				0,
				-0.7071068286895752,
				0,
				0.7071068286895752
			],
			"translation":[
				-5,
				0,
				-5
			]
		},
		{
			"mesh":7,
			"name":"home"
		},
		{
			"mesh":8,
			"name":"home_edge"
		},
		{
			"children":[
				65,
				66
			],
			"name":"board_home.002",
			"rotation":[
				0,
				1,
				0,
				1.6292068494294654e-07
			],
			"translation":[
				5,
				0,
				-5
			]
		},
		{
			"mesh":7,
			"name":"home"
		},
		{
			"mesh":8,
			"name":"home_edge"
		},
		{
			"children":[
				68,
				69
			],
			"name":"board_home.003",
			"rotation":[
				0,
				0.7071065902709961,
				0,
				0.7071069478988647
			],
			"translation":[
				5,
				0,
				5
			]
		}
	],
	"meshes":[
		{
			"name":"Cube.005",
			"primitives":[
				{
					"attributes":{
						"POSITION":0,
						"NORMAL":1,
						"TEXCOORD_0":2
					},
					"indices":3
				}
			]
		},
		{
			"name":"Cube.006",
			"primitives":[
				{
					"attributes":{
						"POSITION":4,
						"NORMAL":5,
						"TEXCOORD_0":6,
						"TANGENT":7
					},
					"indices":8
				}
			]
		},
		{
			"name":"Cube.000",
			"primitives":[
				{
					"attributes":{
						"POSITION":9,
						"NORMAL":10,
						"TEXCOORD_0":11
					},
					"indices":12
				}
			]
		},
		{
			"name":"Cube.001",
			"primitives":[
				{
					"attributes":{
						"POSITION":13,
						"NORMAL":14,
						"TEXCOORD_0":15
					},
					"indices":16
				}
			]
		},
		{
			"name":"Cube.002",
			"primitives":[
				{
					"attributes":{
						"POSITION":17,
						"NORMAL":18,
						"TEXCOORD_0":19
					},
					"indices":20
				}
			]
		},
		{
			"name":"Cube.003",
			"primitives":[
				{
					"attributes":{
						"POSITION":21,
						"NORMAL":22,
						"TEXCOORD_0":23
					},
					"indices":24
				}
			]
		},
		{
			"name":"Cube.004",
			"primitives":[
				{
					"attributes":{
						"POSITION":25,
						"NORMAL":26,
						"TEXCOORD_0":27,
						"TANGENT":28
					},
					"indices":8
				}
			]
		},
		{
			"name":"Cube.007",
			"primitives":[
				{
					"attributes":{
						"POSITION":29,
						"NORMAL":30,
						"TEXCOORD_0":31
					},
					"indices":32
				}
			]
		},
		{
			"name":"Cube.009",
			"primitives":[
				{
					"attributes":{
						"POSITION":33,
						"NORMAL":34,
						"TEXCOORD_0":35,
						"TANGENT":36
					},
					"indices":37
				}
			]
		}
	],
	"accessors":[
		{
			"bufferView":0,
			"componentType":5126,
			"count":1032,
			"max":[
				0.5,
				0.5,
				0.5
			],
			"min":[
				-0.5,
				-0.5,
				-0.5
			],
			"type":"VEC3"
		},
		{
			"bufferView":1,
			"componentType":5126,
			"count":1032,
			"type":"VEC3"
		},
		{
			"bufferView":2,
			"componentType":5126,
			"count":1032,
			"type":"VEC2"
		},
		{
			"bufferView":3,
			"componentType":5123,
			"count":1554,
			"type":"SCALAR"
		},
		{
			"bufferView":4,
			"componentType":5126,
			"count":12,
			"max":[
				0.8999999761581421,
				0.5,
				0.5
			],
			"min":[
				0.5,
				-0.5,
				-0.5
			],
			"type":"VEC3"
		},
		{
			"bufferView":5,
			"componentType":5126,
			"count":12,
			"type":"VEC3"
		},
		{
			"bufferView":6,
			"componentType":5126,
			"count":12,
			"type":"VEC2"
		},
		{
			"bufferView":7,
			"componentType":5126,
			"count":12,
			"type":"VEC4"
		},
		{
			"bufferView":8,
			"componentType":5123,
			"count":18,
			"type":"SCALAR"
		},
		{
			"bufferView":9,
			"componentType":5126,
			"count":5131,
			"max":[
				3,
				0.5,
				1
			],
			"min":[
				-3,
				-0.5,
				-1
			],
			"type":"VEC3"
		},
		{
			"bufferView":10,
			"componentType":5126,
			"count":5131,
			"type":"VEC3"
		},
		{
			"bufferView":11,
			"componentType":5126,
			"count":5131,
			"type":"VEC2"
		},
		{
			"bufferView":12,
			"componentType":5123,
			"count":7725,
			"type":"SCALAR"
		},
		{
			"bufferView":13,
			"componentType":5126,
			"count":1032,
			"max":[
				1,
				0.5,
				1
			],
			"min":[
				-1,
				-0.5,
				-1
			],
			"type":"VEC3"
		},
		{
			"bufferView":14,
			"componentType":5126,
			"count":1032,
			"type":"VEC3"
		},
		{
			"bufferView":15,
			"componentType":5126,
			"count":1032,
			"type":"VEC2"
		},
		{
			"bufferView":16,
			"componentType":5123,
			"count":1554,
			"type":"SCALAR"
		},
		{
			"bufferView":17,
			"componentType":5126,
			"count":5143,
			"max":[
				3,
				0.5,
				0.5
			],
			"min":[
				-3,
				-0.5,
				-0.5
			],
			"type":"VEC3"
		},
		{
			"bufferView":18,
			"componentType":5126,
			"count":5143,
			"type":"VEC3"
		},
		{
			"bufferView":19,
			"componentType":5126,
			"count":5143,
			"type":"VEC2"
		},
		{
			"bufferView":20,
			"componentType":5123,
			"count":7737,
			"type":"SCALAR"
		},
		{
			"bufferView":21,
			"componentType":5126,
			"count":1035,
			"max":[
				0.5,
				0.5,
				1
			],
			"min":[
				-0.5,
				-0.5,
				-1
			],
			"type":"VEC3"
		},
		{
			"bufferView":22,
			"componentType":5126,
			"count":1035,
			"type":"VEC3"
		},
		{
			"bufferView":23,
			"componentType":5126,
			"count":1035,
			"type":"VEC2"
		},
		{
			"bufferView":24,
			"componentType":5123,
			"count":1557,
			"type":"SCALAR"
		},
		{
			"bufferView":25,
			"componentType":5126,
			"count":12,
			"max":[
				0.8999999761581421,
				0.5,
				1
			],
			"min":[
				0.5,
				-0.5,
				-2
			],
			"type":"VEC3"
		},
		{
			"bufferView":26,
			"componentType":5126,
			"count":12,
			"type":"VEC3"
		},
		{
			"bufferView":27,
			"componentType":5126,
			"count":12,
			"type":"VEC2"
		},
		{
			"bufferView":28,
			"componentType":5126,
			"count":12,
			"type":"VEC4"
		},
		{
			"bufferView":29,
			"componentType":5126,
			"count":5130,
			"max":[
				3,
				0.5,
				3
			],
			"min":[
				-3,
				-0.5,
				-3
			],
			"type":"VEC3"
		},
		{
			"bufferView":30,
			"componentType":5126,
			"count":5130,
			"type":"VEC3"
		},
		{
			"bufferView":31,
			"componentType":5126,
			"count":5130,
			"type":"VEC2"
		},
		{
			"bufferView":32,
			"componentType":5123,
			"count":7728,
			"type":"SCALAR"
		},
		{
			"bufferView":33,
			"componentType":5126,
			"count":28,
			"max":[
				3,
				0.5,
				3.4000000953674316
			],
			"min":[
				-3.4000000953674316,
				-0.5,
				-3
			],
			"type":"VEC3"
		},
		{
			"bufferView":34,
			"componentType":5126,
			"count":28,
			"type":"VEC3"
		},
		{
			"bufferView":35,
			"componentType":5126,
			"count":28,
			"type":"VEC2"
		},
		{
			"bufferView":36,
			"componentType":5126,
			"count":28,
			"type":"VEC4"
		},
		{
			"bufferView":37,
			"componentType":5123,
			"count":54,
			"type":"SCALAR"
		}
	],
	"bufferViews":[
		{
			"buffer":0,
			"byteLength":12384,
			"byteOffset":0,
			"target":34962
		},
		{
			"buffer":0,
			"byteLength":12384,
			"byteOffset":12384,
			"target":34962
		},
		{
			"buffer":0,
			"byteLength":8256,
			"byteOffset":24768,
			"target":34962
		},
		{
			"buffer":0,
			"byteLength":3108,
			"byteOffset":33024,
			"target":34963
		},
		{
			"buffer":0,
			"byteLength":144,
			"byteOffset":36132,
			"target":34962
		},
		{
			"buffer":0,
			"byteLength":144,
			"byteOffset":36276,
			"target":34962
		},
		{
			"buffer":0,
			"byteLength":96,
			"byteOffset":36420,
			"target":34962
		},
		{
			"buffer":0,
			"byteLength":192,
			"byteOffset":36516,
			"target":34962
		},
		{
			"buffer":0,
			"byteLength":36,
			"byteOffset":36708,
			"target":34963
		},
		{
			"buffer":0,
			"byteLength":61572,
			"byteOffset":36744,
			"target":34962
		},
		{
			"buffer":0,
			"byteLength":61572,
			"byteOffset":98316,
			"target":34962
		},
		{
			"buffer":0,
			"byteLength":41048,
			"byteOffset":159888,
			"target":34962
		},
		{
			"buffer":0,
			"byteLength":15450,
			"byteOffset":200936,
			"target":34963
		},
		{
			"buffer":0,
			"byteLength":12384,
			"byteOffset":216388,
			"target":34962
		},
		{
			"buffer":0,
			"byteLength":12384,
			"byteOffset":228772,
			"target":34962
		},
		{
			"buffer":0,
			"byteLength":8256,
			"byteOffset":241156,
			"target":34962
		},
		{
			"buffer":0,
			"byteLength":3108,
			"byteOffset":249412,
			"target":34963
		},
		{
			"buffer":0,
			"byteLength":61716,
			"byteOffset":252520,
			"target":34962
		},
		{
			"buffer":0,
			"byteLength":61716,
			"byteOffset":314236,
			"target":34962
		},
		{
			"buffer":0,
			"byteLength":41144,
			"byteOffset":375952,
			"target":34962
		},
		{
			"buffer":0,
			"byteLength":15474,
			"byteOffset":417096,
			"target":34963
		},
		{
			"buffer":0,
			"byteLength":12420,
			"byteOffset":432572,
			"target":34962
		},
		{
			"buffer":0,
			"byteLength":12420,
			"byteOffset":444992,
			"target":34962
		},
		{
			"buffer":0,
			"byteLength":8280,
			"byteOffset":457412,
			"target":34962
		},
		{
			"buffer":0,
			"byteLength":3114,
			"byteOffset":465692,
			"target":34963
		},
		{
			"buffer":0,
			"byteLength":144,
			"byteOffset":468808,
			"target":34962
		},
		{
			"buffer":0,
			"byteLength":144,
			"byteOffset":468952,
			"target":34962
		},
		{
			"buffer":0,
			"byteLength":96,
			"byteOffset":469096,
			"target":34962
		},
		{
			"buffer":0,
			"byteLength":192,
			"byteOffset":469192,
			"target":34962
		},
		{
			"buffer":0,
			"byteLength":61560,
			"byteOffset":469384,
			"target":34962
		},
		{
			"buffer":0,
			"byteLength":61560,
			"byteOffset":530944,
			"target":34962
		},
		{
			"buffer":0,
			"byteLength":41040,
			"byteOffset":592504,
			"target":34962
		},
		{
			"buffer":0,
			"byteLength":15456,
			"byteOffset":633544,
			"target":34963
		},
		{
			"buffer":0,
			"byteLength":336,
			"byteOffset":649000,
			"target":34962
		},
		{
			"buffer":0,
			"byteLength":336,
			"byteOffset":649336,
			"target":34962
		},
		{
			"buffer":0,
			"byteLength":224,
			"byteOffset":649672,
			"target":34962
		},
		{
			"buffer":0,
			"byteLength":448,
			"byteOffset":649896,
			"target":34962
		},
		{
			"buffer":0,
			"byteLength":108,
			"byteOffset":650344,
			"target":34963
		}
	],
	"buffers":[
		{
			"byteLength":650452,
			"uri":"board1-83d6fec8d46aaaa74353988ebea54e05.bin"
		}
	]
}
